HIERARCHY
ROOT root
{
	OFFSET 0.000000 0.054209 0.736571
	CHANNELS 6 Xposition Yposition Zposition Xrotation Yrotation Zrotation
	JOINT spine04
	{
		OFFSET 0.000000 -0.030951 0.078753
		CHANNELS 6 Xposition Yposition Zposition Xrotation Yrotation Zrotation
		JOINT spine02
		{
			OFFSET 0.000000 -0.000238 0.104623
			CHANNELS 6 Xposition Yposition Zposition Xrotation Yrotation Zrotation
			JOINT spine01
			{
				OFFSET 0.000000 0.017421 0.109292
				CHANNELS 3 Xrotation Yrotation Zrotation
				JOINT neck01
				{
					OFFSET 0.000000 -0.049753 0.167208
					CHANNELS 6 Xposition Yposition Zposition Xrotation Yrotation Zrotation
					JOINT neck02
					{
						OFFSET 0.000000 0.005512 0.021216
						CHANNELS 3 Xrotation Yrotation Zrotation
						JOINT jaw
						{
							OFFSET 0.000000 -0.043573 0.063271
							CHANNELS 6 Xposition Yposition Zposition Xrotation Yrotation Zrotation
							End Site
							{
								OFFSET 0.000000 -0.008974 0.006557
							}
						}
						JOINT eye.L
						{
							OFFSET 0.023675 -0.098122 0.090003
							CHANNELS 3 Xrotation Yrotation Zrotation
							End Site
							{
								OFFSET 0.001819 -0.030370 -0.004421
							}
						}
						JOINT orbicularis03.L
						{
							OFFSET 0.023675 -0.098122 0.090003
							CHANNELS 3 Xrotation Yrotation Zrotation
							End Site
							{
								OFFSET 0.001761 -0.029014 0.005250
							}
						}
						JOINT eye.R
						{
							OFFSET -0.023674 -0.098122 0.090003
							CHANNELS 3 Xrotation Yrotation Zrotation
							End Site
							{
								OFFSET -0.001819 -0.030370 -0.004421
							}
						}
						JOINT orbicularis03.R
						{
							OFFSET -0.023674 -0.098122 0.090003
							CHANNELS 3 Xrotation Yrotation Zrotation
							End Site
							{
								OFFSET -0.001761 -0.029014 0.005250
							}
						}
						End Site
						{
							OFFSET 0.000000 0.005511 0.021217
						}
					}
				}
				JOINT clavicle.R
				{
					OFFSET -0.018367 -0.058464 0.107155
					CHANNELS 6 Xposition Yposition Zposition Xrotation Yrotation Zrotation
					JOINT upperarm01.R
					{
						OFFSET -0.132020 0.003642 -0.024313
						CHANNELS 6 Xposition Yposition Zposition Xrotation Yrotation Zrotation
						JOINT lowerarm01.R
						{
							OFFSET -0.133638 0.001770 -0.153088
							CHANNELS 6 Xposition Yposition Zposition Xrotation Yrotation Zrotation
							JOINT wrist.R
							{
								OFFSET -0.108574 -0.154815 -0.103768
								CHANNELS 6 Xposition Yposition Zposition Xrotation Yrotation Zrotation
								JOINT finger2-1.R
								{
									OFFSET -0.024321 -0.084906 -0.032804
									CHANNELS 3 Xrotation Yrotation Zrotation
									JOINT finger2-2.R
									{
										OFFSET -0.002927 -0.018838 -0.012653
										CHANNELS 3 Xrotation Yrotation Zrotation
										JOINT finger2-3.R
										{
											OFFSET 0.000460 -0.015088 -0.013862
											CHANNELS 3 Xrotation Yrotation Zrotation
											End Site
											{
												OFFSET 0.003042 -0.016083 -0.016987
											}
										}
									}
								}
								JOINT finger3-1.R
								{
									OFFSET -0.038828 -0.069770 -0.043127
									CHANNELS 3 Xrotation Yrotation Zrotation
									JOINT finger3-2.R
									{
										OFFSET -0.006387 -0.018854 -0.022184
										CHANNELS 3 Xrotation Yrotation Zrotation
										JOINT finger3-3.R
										{
											OFFSET -0.002379 -0.015757 -0.018305
											CHANNELS 3 Xrotation Yrotation Zrotation
											End Site
											{
												OFFSET 0.000156 -0.013802 -0.019326
											}
										}
									}
								}
								JOINT finger4-1.R
								{
									OFFSET -0.045586 -0.054771 -0.050312
									CHANNELS 3 Xrotation Yrotation Zrotation
									JOINT finger4-2.R
									{
										OFFSET -0.008217 -0.013209 -0.021152
										CHANNELS 3 Xrotation Yrotation Zrotation
										JOINT finger4-3.R
										{
											OFFSET -0.003838 -0.011895 -0.018031
											CHANNELS 3 Xrotation Yrotation Zrotation
											End Site
											{
												OFFSET -0.002024 -0.010563 -0.020894
											}
										}
									}
								}
								JOINT finger5-1.R
								{
									OFFSET -0.046820 -0.037780 -0.058682
									CHANNELS 3 Xrotation Yrotation Zrotation
									JOINT finger5-2.R
									{
										OFFSET -0.005233 -0.007322 -0.016539
										CHANNELS 3 Xrotation Yrotation Zrotation
										JOINT finger5-3.R
										{
											OFFSET -0.001524 -0.005483 -0.012548
											CHANNELS 3 Xrotation Yrotation Zrotation
											End Site
											{
												OFFSET -0.002248 -0.006725 -0.016024
											}
										}
									}
								}
								JOINT finger1-1.R
								{
									OFFSET -0.000927 -0.039280 -0.005363
									CHANNELS 3 Xrotation Yrotation Zrotation
									JOINT finger1-2.R
									{
										OFFSET 0.018386 -0.018805 -0.006895
										CHANNELS 3 Xrotation Yrotation Zrotation
										JOINT finger1-3.R
										{
											OFFSET 0.010991 -0.028095 -0.011249
											CHANNELS 3 Xrotation Yrotation Zrotation
											End Site
											{
												OFFSET 0.004840 -0.019091 -0.014527
											}
										}
									}
								}
							}
						}
					}
				}
				JOINT clavicle.L
				{
					OFFSET 0.018367 -0.058465 0.107155
					CHANNELS 6 Xposition Yposition Zposition Xrotation Yrotation Zrotation
					JOINT upperarm01.L
					{
						OFFSET 0.132020 0.003642 -0.024313
						CHANNELS 6 Xposition Yposition Zposition Xrotation Yrotation Zrotation
						JOINT lowerarm01.L
						{
							OFFSET 0.133637 0.001770 -0.153088
							CHANNELS 6 Xposition Yposition Zposition Xrotation Yrotation Zrotation
							JOINT wrist.L
							{
								OFFSET 0.108574 -0.154815 -0.103768
								CHANNELS 6 Xposition Yposition Zposition Xrotation Yrotation Zrotation
								JOINT finger2-1.L
								{
									OFFSET 0.024321 -0.084906 -0.032804
									CHANNELS 3 Xrotation Yrotation Zrotation
									JOINT finger2-2.L
									{
										OFFSET 0.002927 -0.018838 -0.012653
										CHANNELS 3 Xrotation Yrotation Zrotation
										JOINT finger2-3.L
										{
											OFFSET -0.000460 -0.015088 -0.013862
											CHANNELS 3 Xrotation Yrotation Zrotation
											End Site
											{
												OFFSET -0.003042 -0.016083 -0.016987
											}
										}
									}
								}
								JOINT finger3-1.L
								{
									OFFSET 0.038828 -0.069770 -0.043127
									CHANNELS 3 Xrotation Yrotation Zrotation
									JOINT finger3-2.L
									{
										OFFSET 0.006387 -0.018854 -0.022184
										CHANNELS 3 Xrotation Yrotation Zrotation
										JOINT finger3-3.L
										{
											OFFSET 0.002379 -0.015757 -0.018305
											CHANNELS 3 Xrotation Yrotation Zrotation
											End Site
											{
												OFFSET -0.000156 -0.013802 -0.019326
											}
										}
									}
								}
								JOINT finger4-1.L
								{
									OFFSET 0.045586 -0.054771 -0.050312
									CHANNELS 3 Xrotation Yrotation Zrotation
									JOINT finger4-2.L
									{
										OFFSET 0.008217 -0.013209 -0.021152
										CHANNELS 3 Xrotation Yrotation Zrotation
										JOINT finger4-3.L
										{
											OFFSET 0.003839 -0.011895 -0.018031
											CHANNELS 3 Xrotation Yrotation Zrotation
											End Site
											{
												OFFSET 0.002024 -0.010563 -0.020894
											}
										}
									}
								}
								JOINT finger5-1.L
								{
									OFFSET 0.046820 -0.037780 -0.058682
									CHANNELS 3 Xrotation Yrotation Zrotation
									JOINT finger5-2.L
									{
										OFFSET 0.005234 -0.007322 -0.016539
										CHANNELS 3 Xrotation Yrotation Zrotation
										JOINT finger5-3.L
										{
											OFFSET 0.001524 -0.005483 -0.012548
											CHANNELS 3 Xrotation Yrotation Zrotation
											End Site
											{
												OFFSET 0.002248 -0.006725 -0.016024
											}
										}
									}
								}
								JOINT finger1-1.L
								{
									OFFSET 0.000927 -0.039280 -0.005363
									CHANNELS 3 Xrotation Yrotation Zrotation
									JOINT finger1-2.L
									{
										OFFSET -0.018386 -0.018805 -0.006894
										CHANNELS 3 Xrotation Yrotation Zrotation
										JOINT finger1-3.L
										{
											OFFSET -0.010991 -0.028095 -0.011249
											CHANNELS 3 Xrotation Yrotation Zrotation
											End Site
											{
												OFFSET -0.004839 -0.019091 -0.014527
											}
										}
									}
								}
							}
						}
					}
				}
			}
		}
	}
	JOINT upperleg01.R
	{
		OFFSET -0.087495 -0.048056 0.004242
		CHANNELS 6 Xposition Yposition Zposition Xrotation Yrotation Zrotation
		JOINT lowerleg01.R
		{
			OFFSET -0.034522 -0.027831 -0.333803
			CHANNELS 6 Xposition Yposition Zposition Xrotation Yrotation Zrotation
			JOINT foot.R
			{
				OFFSET -0.037458 0.009413 -0.349633
				CHANNELS 3 Xrotation Yrotation Zrotation
				JOINT toe1-1.R
				{
					OFFSET -0.003290 -0.101211 -0.050981
					CHANNELS 6 Xposition Yposition Zposition Xrotation Yrotation Zrotation
					End Site
					{
						OFFSET 0.000524 -0.066142 0.003009
					}
				}
			}
		}
	}
	JOINT upperleg01.L
	{
		OFFSET 0.087495 -0.048056 0.004242
		CHANNELS 6 Xposition Yposition Zposition Xrotation Yrotation Zrotation
		JOINT lowerleg01.L
		{
			OFFSET 0.034522 -0.027831 -0.333803
			CHANNELS 6 Xposition Yposition Zposition Xrotation Yrotation Zrotation
			JOINT foot.L
			{
				OFFSET 0.037458 0.009413 -0.349633
				CHANNELS 3 Xrotation Yrotation Zrotation
				JOINT toe1-1.L
				{
					OFFSET 0.003290 -0.101211 -0.050981
					CHANNELS 6 Xposition Yposition Zposition Xrotation Yrotation Zrotation
					End Site
					{
						OFFSET -0.000524 -0.066142 0.003009
					}
				}
			}
		}
	}
}
MOTION
Frames: 5
Frame Time:	0.016667
0.8879 0.4469 0.454 1.5204 -3.71 -91.81 0.0002 -0.0365 0.074 5.1153 -1.0952 -0.5367 0.0003 -0.006 0.1072 27.1446 1.5003 -0.6373 0 0 0 0 -0.0422 0.161 5.6817 -0.9116 -1.7207 -47.9015 0.736 1.4903 0 -0.0436 0.0633 0 -0.0001 0 2.9288 0 -0.0053 44.6334 2.6227 -0.7201 2.9283 0 -0.0067 44.4863 -2.6122 0.7154 -0.0184 -0.0573 0.1063 -0.4811 -4.6157 0.9021 -0.1356 -0.0037 -0.0169 9.9057 -16.8997 16.042 -0.1336 0.0017 -0.1531 -36.9671 -1.1444 58.5752 -0.1086 -0.1548 -0.1037 -19.7375 68.1146 43.5305 42.6293 -24.2991 32.4294 45.3178 -17.8586 38.6885 52.0974 -17.0096 43.8651 7.9879 -11.826 8.5789 25.3402 -25.9721 21.6213 16.452 -20.9389 13.3478 22.7295 -34.3407 30.546 45.1261 -41.4237 39.7816 42.3403 -42.196 40.1609 29.2884 -46.6306 38.3046 49.1425 -50.0043 40.8174 57.4698 -51.5735 50.2008 -9.1844 -35.5833 -28.6874 7.0737 8.5056 -16.8583 -2.1825 13.0321 -26.5014 0.0184 -0.0573 0.1063 -0.7949 3.3358 -3.6325 0.1356 -0.0037 -0.0169 14.5583 8.8327 -9.1617 0.1336 0.0017 -0.1531 -36.511 10.0129 -55.0028 0.1086 -0.1547 -0.1037 -28.9985 -84.9081 -29.3151 48.2577 23.9972 -38.3149 51.7067 16.7463 -45.0606 56.5768 15.8041 -48.5728 1.8946 5.2662 -2.7068 20.4224 22.7556 -16.4916 13.0225 17.8961 -9.8266 13.195 27.3098 -21.2204 35.2506 37.6117 -29.73 30.9448 37.6872 -28.7634 19.5553 41.8652 -29.3287 39.8303 46.5776 -31.5993 46.4272 48.965 -39.2699 -1.5143 29.4789 22.8103 8.0084 -5.641 11.6389 -3.8162 -6.6913 18.1309 -0.0875 -0.0481 0.0042 -84.9868 -4.9744 5.4466 -0.0345 -0.0278 -0.3338 89.346 -5.3621 -6.8245 33.4141 -10.568 11.8844 -0.0033 -0.1012 -0.051 -25.3607 0.0022 0.0004 0.0875 -0.0481 0.0042 -84.6135 -3.4339 -11.1273 0.0345 -0.0278 -0.3338 90.5579 0.7439 11.3281 41.5505 13.0203 -16.2092 0.0033 -0.1012 -0.051 -32.5803 -0.004 0.0132 
0.8876 0.4465 0.4519 1.2976 -3.0004 -91.7558 0.0002 -0.0365 0.0739 4.8027 -1.0813 -0.5034 0.0002 -0.006 0.1071 26.95 1.4382 -0.602 0 0 0 0 -0.0422 0.161 5.8024 -0.8777 -1.6872 -47.295 1.0114 1.5348 0 -0.0436 0.0633 0 -0.0001 0 2.9289 0 -0.0053 44.7856 2.63 -0.7257 2.9284 -0.0001 -0.0066 44.7121 -2.6244 0.7234 -0.0184 -0.0573 0.1063 -0.5004 -4.6176 0.985 -0.1356 -0.0037 -0.0169 9.385 -16.8837 16.314 -0.1336 0.0017 -0.1531 -36.4458 -0.6633 58.0984 -0.1086 -0.1548 -0.1037 -16.1626 67.4265 40.3912 42.3304 -24.2952 32.1201 45.0658 -17.8706 38.4522 51.8303 -17.0465 43.6149 7.7653 -11.6468 8.3843 25.1157 -25.8487 21.3792 16.2027 -20.744 13.0766 22.1962 -34.0642 30.0566 44.5649 -41.2668 39.2022 41.7552 -42.0319 39.5669 29.2883 -46.6306 38.3046 49.1426 -50.0043 40.8175 57.4698 -51.5735 50.2008 -9.1723 -35.5828 -28.6682 7.0526 8.4804 -16.7924 -2.2312 12.9731 -26.3865 0.0184 -0.0573 0.1063 -0.8066 3.3365 -3.6858 0.1356 -0.0037 -0.0169 14.1565 8.9193 -9.4925 0.1336 0.0017 -0.1531 -35.7204 9.5769 -54.4821 0.1086 -0.1547 -0.1037 -28.2755 -84.6892 -28.8894 48.2576 23.9969 -38.314 51.706 16.7464 -45.06 56.5762 15.8042 -48.5722 1.8725 5.1411 -2.5986 20.217 22.6148 -16.2686 12.8987 17.7844 -9.691 13.1175 27.2463 -21.1476 35.1367 37.5589 -29.6119 30.8457 37.6382 -28.6626 19.4552 41.814 -29.2418 39.7172 46.5292 -31.4864 46.3096 48.9303 -39.1525 -1.4863 29.4439 22.9091 8.0004 -5.6313 11.6163 -3.8193 -6.687 18.1237 -0.0875 -0.0481 0.0042 -84.6528 -4.7821 5.6345 -0.0345 -0.0278 -0.3338 89.63 -5.3578 -6.8595 34.0664 -10.3007 11.9923 -0.0033 -0.1012 -0.051 -25.8125 0.0015 0.0005 0.0875 -0.0481 0.0042 -84.1221 -3.3535 -10.9095 0.0345 -0.0278 -0.3338 90.5088 0.6397 11.4164 42.985 13.1903 -16.7008 0.0033 -0.1012 -0.051 -33.741 -0.0041 0.0115 
0.8875 0.4463 0.4503 1.1231 -2.5174 -91.6932 0.0002 -0.0365 0.0737 4.4555 -1.0709 -0.4722 0.0002 -0.006 0.1071 26.7706 1.3786 -0.5683 0 0 0 0 -0.0422 0.161 5.9228 -0.8438 -1.6538 -46.8021 1.2426 1.5708 0 -0.0436 0.0633 0 -0.0001 0 2.9289 0 -0.0053 44.8617 2.6336 -0.7285 2.9284 -0.0001 -0.0066 44.825 -2.6306 0.7274 -0.0184 -0.0573 0.1063 -0.5151 -4.6192 1.0479 -0.1356 -0.0037 -0.0169 8.9861 -16.8741 16.5281 -0.1336 0.0017 -0.1531 -36.0228 -0.2777 57.7231 -0.1086 -0.1548 -0.1037 -13.3909 66.837 38.0172 42.1606 -24.2921 31.9442 44.9223 -17.8771 38.3177 51.6787 -17.0668 43.4728 7.6479 -11.5521 8.2822 24.9978 -25.7833 21.252 16.0712 -20.6403 12.9335 21.9947 -33.9576 29.8713 44.3526 -41.2061 38.9829 41.5318 -41.9677 39.3401 29.2883 -46.6306 38.3046 49.1425 -50.0043 40.8174 57.4698 -51.5735 50.2008 -9.1608 -35.5789 -28.6637 7.0475 8.4742 -16.776 -2.2493 12.9511 -26.3437 0.0184 -0.0573 0.1063 -0.8157 3.3374 -3.7273 0.1356 -0.0037 -0.0169 13.8473 9.0102 -9.7684 0.1336 0.0017 -0.1531 -35.0642 9.212 -54.0677 0.1086 -0.1547 -0.1037 -28.2675 -84.6001 -29.1009 48.2577 23.9968 -38.3135 51.7057 16.7465 -45.0597 56.5757 15.8043 -48.5718 1.8613 5.0734 -2.5401 20.1056 22.5378 -16.1475 12.8318 17.7238 -9.6176 13.2499 27.3459 -21.2639 35.2686 37.62 -29.7487 30.9851 37.7071 -28.8043 19.4149 41.7936 -29.207 39.6694 46.5086 -31.4387 46.2612 48.916 -39.1041 -1.4707 29.4246 22.9636 7.9962 -5.6263 11.6045 -3.8203 -6.6856 18.1215 -0.0875 -0.0481 0.0042 -84.4841 -4.6293 5.7643 -0.0345 -0.0278 -0.3338 89.8727 -5.3697 -6.8751 34.4754 -10.1409 11.9351 -0.0033 -0.1012 -0.051 -26.1137 0.0012 0.0005 0.0875 -0.0481 0.0042 -83.8839 -3.2631 -10.7023 0.0345 -0.0278 -0.3338 90.5719 0.5423 11.5199 43.9503 13.2945 -17.0186 0.0033 -0.1012 -0.051 -34.4226 -0.0033 0.0078 
0.8875 0.4461 0.4489 0.9798 -2.0007 -91.6272 0.0002 -0.0365 0.0737 4.2498 -1.0613 -0.4467 0.0002 -0.0059 0.107 26.6658 1.3186 -0.5367 0 0 0 0 -0.0422 0.161 5.9935 -0.8111 -1.624 -46.4539 1.4428 1.6083 0 -0.0436 0.0633 0 0 0 2.9294 0 -0.0037 44.8998 2.6353 -0.7299 2.929 0 -0.0047 44.8815 -2.6337 0.7293 -0.0184 -0.0572 0.1063 -0.5299 -4.6205 1.1116 -0.1356 -0.0037 -0.0169 8.6032 -16.8652 16.7337 -0.1336 0.0017 -0.1531 -35.6546 0.0755 57.3839 -0.1086 -0.1548 -0.1037 -10.998 66.3025 36.0304 41.8199 -24.2843 31.5904 44.6311 -17.8891 38.0446 51.3776 -17.1063 43.1906 7.4894 -11.4245 8.145 24.8391 -25.6948 21.0808 15.8942 -20.4997 12.7408 21.7711 -33.8389 29.6663 44.1178 -41.1381 38.7405 41.283 -41.8953 39.0874 29.2883 -46.6306 38.3046 49.1426 -50.0043 40.8175 57.4699 -51.5735 50.2009 -9.1455 -35.5716 -28.6672 7.0457 8.4721 -16.7704 -2.267 12.9296 -26.302 0.0184 -0.0572 0.1063 -0.8251 3.3384 -3.77 0.1356 -0.0037 -0.0169 13.5415 9.1038 -10.0229 0.1336 0.0017 -0.1531 -34.4986 8.878 -53.6944 0.1086 -0.1547 -0.1037 -28.1646 -84.5652 -29.192 48.2576 23.9966 -38.3128 51.7052 16.7465 -45.0592 56.5752 15.8044 -48.5714 1.8457 4.981 -2.4603 19.953 22.4317 -15.9816 12.7402 17.6405 -9.5173 13.4261 27.4789 -21.4198 35.444 37.7008 -29.9305 31.1714 37.7983 -28.9938 19.3689 41.771 -29.168 39.6136 46.4846 -31.383 46.2057 48.8995 -39.0487 -1.4521 29.3988 23.0424 7.9906 -5.6195 11.5886 -3.8212 -6.6844 18.1194 -0.0875 -0.0481 0.0042 -84.2353 -4.5158 5.8512 -0.0345 -0.0278 -0.3338 90.0587 -5.3834 -6.8828 34.8857 -9.9734 11.8011 -0.0033 -0.1012 -0.051 -26.4261 0.0011 0.0005 0.0875 -0.0481 0.0042 -83.5403 -3.1663 -10.527 0.0345 -0.0278 -0.3338 90.5965 0.4638 11.5982 44.6866 13.3419 -17.2899 0.0033 -0.1012 -0.051 -34.9728 -0.0021 0.0051 
0.8877 0.446 0.4477 0.8775 -1.4889 -91.5857 0.0001 -0.0365 0.0736 4.1285 -1.0572 -0.4246 0.0002 -0.0059 0.107 26.6255 1.2617 -0.5043 0 0 0 0 -0.0422 0.161 6.0275 -0.7746 -1.5802 -46.2667 1.5695 1.6555 0 -0.0436 0.0633 0 -0.0001 0 2.9304 0 -0.0022 44.9189 2.6362 -0.7306 2.9301 -0.0001 -0.0029 44.7062 -2.6256 0.7226 -0.0184 -0.0572 0.1063 -0.5493 -4.622 1.194 -0.1356 -0.0037 -0.0169 8.2023 -16.8637 16.9615 -0.1336 0.0017 -0.1531 -35.4024 0.3859 57.1178 -0.1086 -0.1548 -0.1037 -8.343 65.72 33.9708 41.8199 -24.2843 31.5904 44.6311 -17.8891 38.0446 51.3776 -17.1063 43.1906 7.4894 -11.4245 8.145 24.8392 -25.6948 21.0808 15.8942 -20.4998 12.7408 21.7711 -33.8388 29.6663 44.1178 -41.138 38.7405 41.2829 -41.8953 39.0874 29.2883 -46.6306 38.3046 49.1425 -50.0044 40.8175 57.4699 -51.5735 50.2008 -9.1455 -35.5716 -28.6671 7.0457 8.472 -16.7705 -2.267 12.9296 -26.302 0.0184 -0.0572 0.1063 -0.8347 3.3394 -3.8135 0.1356 -0.0037 -0.0169 13.2471 9.1941 -10.2414 0.1336 0.0017 -0.1531 -34.075 8.5545 -53.4049 0.1086 -0.1547 -0.1037 -26.4783 -84.5922 -27.7778 48.2576 23.9965 -38.3128 51.7051 16.7466 -45.0592 56.5753 15.8044 -48.5713 1.8457 4.981 -2.4603 19.9529 22.4317 -15.9816 12.7402 17.6405 -9.5173 13.4261 27.4789 -21.4198 35.4441 37.7008 -29.9306 31.1714 37.7983 -28.9938 19.3689 41.771 -29.168 39.6136 46.4845 -31.3829 46.2056 48.8994 -39.0487 -1.4521 29.3988 23.0424 7.9906 -5.6195 11.5886 -3.8211 -6.6844 18.1195 -0.0875 -0.0481 0.0042 -83.9846 -4.4512 5.9061 -0.0345 -0.0278 -0.3338 90.1709 -5.4217 -6.8588 35.356 -9.7233 11.5484 -0.0033 -0.1012 -0.051 -26.7647 0.0011 0.0009 0.0875 -0.0481 0.0042 -83.1632 -3.136 -10.4073 0.0345 -0.0278 -0.3338 90.5456 0.3874 11.6597 45.2977 13.3559 -17.5702 0.0033 -0.1012 -0.051 -35.3579 -0.0012 0.0033 
